<svg width="1280" height="720" xmlns="http://www.w3.org/2000/svg" xmlns:xlink="http://www.w3.org/1999/xlink" overflow="hidden"><defs><clipPath id="clip0"><rect x="0" y="0" width="1280" height="720"/></clipPath><clipPath id="clip1"><rect x="1243" y="322" width="90" height="54"/></clipPath><clipPath id="clip2"><rect x="1243" y="375" width="90" height="53"/></clipPath><clipPath id="clip3"><rect x="1243" y="322" width="90" height="54"/></clipPath><clipPath id="clip4"><rect x="1243" y="375" width="90" height="53"/></clipPath></defs><g clip-path="url(#clip0)"><rect x="0" y="0" width="1280" height="720" fill="#FFFFFF"/><path d="M1295.26 0 1312.54 0 1312.54 43.2 1295.26 43.2Z" fill="#FF9349" fill-rule="evenodd"/><path d="M1312.54 0 1329.72 0 1329.72 43.2 1312.54 43.2Z" fill="#FEF000" fill-rule="evenodd"/><path d="M1329.72 0 1346.9 0 1346.9 43.2 1329.72 43.2Z" fill="#9BF00B" fill-rule="evenodd"/><path d="M1346.9 0 1364.07 0 1364.07 43.2 1346.9 43.2Z" fill="#30E5D0" fill-rule="evenodd"/><path d="M1364.07 0 1381.25 0 1381.25 43.2 1364.07 43.2Z" fill="#50E6FF" fill-rule="evenodd"/><path d="M1381.25 0 1398.43 0 1398.43 43.2 1381.25 43.2Z" fill="#D59DFF" fill-rule="evenodd"/><path d="M1295.26 43.2 1312.54 43.2 1312.54 86.4 1295.26 86.4Z" fill="#D83B01" fill-rule="evenodd"/><path d="M1312.54 43.2 1329.72 43.2 1329.72 86.4 1312.54 86.4Z" fill="#FFB900" fill-rule="evenodd"/><path d="M1329.72 43.2 1346.9 43.2 1346.9 86.4 1329.72 86.4Z" fill="#107C10" fill-rule="evenodd"/><path d="M1346.9 43.2 1364.07 43.2 1364.07 86.4 1346.9 86.4Z" fill="#008575" fill-rule="evenodd"/><path d="M1364.07 43.2 1381.25 43.2 1381.25 86.4 1364.07 86.4Z" fill="#0078D4" fill-rule="evenodd"/><path d="M1381.25 43.2 1398.43 43.2 1398.43 86.4 1381.25 86.4Z" fill="#8661C5" fill-rule="evenodd"/><path d="M1295.26 86.4 1312.54 86.4 1312.54 129.6 1295.26 129.6Z" fill="#6B2929" fill-rule="evenodd"/><path d="M1312.54 86.4 1329.72 86.4 1329.72 129.6 1312.54 129.6Z" fill="#6A4B16" fill-rule="evenodd"/><path d="M1329.72 86.4 1346.9 86.4 1346.9 129.6 1329.72 129.6Z" fill="#054B16" fill-rule="evenodd"/><path d="M1346.9 86.4 1364.07 86.4 1364.07 129.6 1346.9 129.6Z" fill="#274B47" fill-rule="evenodd"/><path d="M1364.07 86.4 1381.25 86.4 1381.25 129.6 1364.07 129.6Z" fill="#243A5E" fill-rule="evenodd"/><path d="M1381.25 86.4 1398.43 86.4 1398.43 129.6 1381.25 129.6Z" fill="#3B2E58" fill-rule="evenodd"/><path d="M1295.26 129.6 1312.54 129.6 1312.54 172.8 1295.26 172.8Z" fill="#FFFFFF" fill-rule="evenodd"/><path d="M1312.54 129.6 1329.72 129.6 1329.72 172.8 1312.54 172.8Z" fill="#F2F2F2" fill-rule="evenodd"/><path d="M1329.72 129.6 1346.9 129.6 1346.9 172.8 1329.72 172.8Z" fill="#E6E6E6" fill-rule="evenodd"/><path d="M1346.9 129.6 1364.07 129.6 1364.07 172.8 1346.9 172.8Z" fill="#D2D2D2" fill-rule="evenodd"/><path d="M1364.07 129.6 1381.25 129.6 1381.25 172.8 1364.07 172.8Z" fill="#737373" fill-rule="evenodd"/><path d="M1381.25 129.6 1398.43 129.6 1398.43 172.8 1381.25 172.8Z" fill="#505050" fill-rule="evenodd"/><path d="M1398.43 129.6 1415.61 129.6 1415.61 172.8 1398.43 172.8Z" fill="#2F2F2F" fill-rule="evenodd"/><path d="M1415.61 129.6 1432.79 129.6 1432.79 172.8 1415.61 172.8Z" fill-rule="evenodd"/><path d="M1295.26 178.347 1312.54 178.347 1312.54 226.347 1295.26 226.347Z" fill="#0078D4" fill-rule="evenodd"/><path d="M1312.54 178.347 1329.72 178.347 1329.72 226.347 1312.54 226.347Z" fill="#50E6FF" fill-rule="evenodd"/><path d="M1329.72 178.347 1346.9 178.347 1346.9 226.347 1329.72 226.347Z" fill="#FFFFFF" fill-rule="evenodd"/><path d="M1346.9 178.347 1364.07 178.347 1364.07 226.347 1346.9 226.347Z" fill="#EBEBEB" fill-rule="evenodd"/><path d="M1364.07 178.347 1381.25 178.347 1381.25 226.347 1364.07 226.347Z" fill="#75757A" fill-rule="evenodd"/><path d="M1381.25 178.347 1398.43 178.347 1398.43 226.347 1381.25 226.347Z" fill="#3C3C41" fill-rule="evenodd"/><path d="M1398.43 178.347 1415.61 178.347 1415.61 226.347 1398.43 226.347Z" fill-rule="evenodd"/><path d="M1295.26 226.347 1312.54 226.347 1312.54 274.347 1295.26 274.347Z" fill="#0078D4" fill-rule="evenodd"/><path d="M1312.54 226.347 1329.72 226.347 1329.72 274.347 1312.54 274.347Z" fill="#243A5E" fill-rule="evenodd"/><path d="M1329.72 226.347 1346.9 226.347 1346.9 274.347 1329.72 274.347Z" fill="#F2F2F2" fill-rule="evenodd"/><path d="M1346.9 226.347 1364.07 226.347 1364.07 274.347 1346.9 274.347Z" fill="#FFFFFF" fill-rule="evenodd"/><path d="M1364.07 226.347 1381.25 226.347 1381.25 274.347 1364.07 274.347Z" fill="#505050" fill-rule="evenodd"/><path d="M1295.26 274.347 1312.54 274.347 1312.54 322.347 1295.26 322.347Z" fill="#0078D4" fill-rule="evenodd"/><path d="M1312.54 274.347 1329.72 274.347 1329.72 322.347 1312.54 322.347Z" fill="#243A5E" fill-rule="evenodd"/><path d="M1329.72 274.347 1346.9 274.347 1346.9 322.347 1329.72 322.347Z" fill-rule="evenodd"/><path d="M1346.9 274.347 1364.07 274.347 1364.07 322.347 1346.9 322.347Z" fill="#FFFFFF" fill-rule="evenodd"/><path d="M1364.07 274.347 1381.25 274.347 1381.25 322.347 1364.07 322.347Z" fill="#505050" fill-rule="evenodd"/><path d="M1295.26 322.347 1312.54 322.347 1312.54 375.147 1295.26 375.147Z" fill="#50E6FF" fill-rule="evenodd"/><path d="M1312.54 322.347 1329.72 322.347 1329.72 375.147 1312.54 375.147Z" fill="#0C59A4" fill-rule="evenodd"/><path d="M1329.72 322.347 1346.9 322.347 1346.9 375.147 1329.72 375.147Z" fill="#737373" fill-rule="evenodd"/><path d="M1346.9 322.347 1364.07 322.347 1364.07 375.147 1346.9 375.147Z" fill="#D2D2D2" fill-rule="evenodd"/><path d="M1295.26 375.147 1312.54 375.147 1312.54 427.947 1295.26 427.947Z" fill="#50E6FF" fill-rule="evenodd"/><path d="M1312.54 375.147 1329.72 375.147 1329.72 427.947 1312.54 427.947Z" fill="#D83B01" fill-rule="evenodd"/><path d="M1329.72 375.147 1346.9 375.147 1346.9 427.947 1329.72 427.947Z" fill="#9BF00B" fill-rule="evenodd"/><path d="M1295.26 427.947 1312.54 427.947 1312.54 475.947 1295.26 475.947Z" fill="#D83B01" fill-rule="evenodd"/><path d="M1312.54 427.947 1329.72 427.947 1329.72 475.947 1312.54 475.947Z" fill="#FFFFFF" fill-rule="evenodd"/><path d="M1329.72 427.947 1346.9 427.947 1346.9 475.947 1329.72 475.947Z" fill-rule="evenodd"/><path d="M1346.9 427.947 1364.07 427.947 1364.07 475.947 1346.9 475.947Z" fill="#2F2F2F" fill-rule="evenodd"/><path d="M1364.07 427.947 1381.25 427.947 1381.25 475.947 1364.07 475.947Z" fill="#D2D2D2" fill-rule="evenodd"/><path d="M1381.25 427.947 1398.43 427.947 1398.43 475.947 1381.25 475.947Z" fill="#E6E6E6" fill-rule="evenodd"/><path d="M1295.26 475.947 1312.54 475.947 1312.54 523.947 1295.26 523.947Z" fill="#3B2E58" fill-rule="evenodd"/><path d="M1312.54 475.947 1329.72 475.947 1329.72 523.947 1312.54 523.947Z" fill="#8661C5" fill-rule="evenodd"/><path d="M1329.72 475.947 1346.9 475.947 1346.9 523.947 1329.72 523.947Z" fill="#D59DFF" fill-rule="evenodd"/><path d="M1346.9 475.947 1364.07 475.947 1364.07 523.947 1346.9 523.947Z" fill="#191919" fill-rule="evenodd"/><path d="M1364.07 475.947 1381.25 475.947 1381.25 523.947 1364.07 523.947Z" fill="#D9D9D6" fill-rule="evenodd"/><path d="M1381.25 475.947 1398.43 475.947 1398.43 523.947 1381.25 523.947Z" fill="#FFFFFF" fill-rule="evenodd"/><path d="M1295.26-0.166614 1295.26 524.113" stroke="#FFFFFF" stroke-width="0.333333" stroke-linejoin="round" stroke-miterlimit="10" fill="none" fill-rule="evenodd"/><path d="M1312.54-0.166614 1312.54 524.113" stroke="#FFFFFF" stroke-width="0.333333" stroke-linejoin="round" stroke-miterlimit="10" fill="none" fill-rule="evenodd"/><path d="M1329.72-0.166614 1329.72 524.113" stroke="#FFFFFF" stroke-width="0.333333" stroke-linejoin="round" stroke-miterlimit="10" fill="none" fill-rule="evenodd"/><path d="M1346.9-0.166614 1346.9 524.113" stroke="#FFFFFF" stroke-width="0.333333" stroke-linejoin="round" stroke-miterlimit="10" fill="none" fill-rule="evenodd"/><path d="M1364.07-0.166614 1364.07 524.113" stroke="#FFFFFF" stroke-width="0.333333" stroke-linejoin="round" stroke-miterlimit="10" fill="none" fill-rule="evenodd"/><path d="M1381.25-0.166614 1381.25 524.113" stroke="#FFFFFF" stroke-width="0.333333" stroke-linejoin="round" stroke-miterlimit="10" fill="none" fill-rule="evenodd"/><path d="M1398.43-0.166614 1398.43 524.113" stroke="#FFFFFF" stroke-width="0.333333" stroke-linejoin="round" stroke-miterlimit="10" fill="none" fill-rule="evenodd"/><path d="M1415.61-0.166614 1415.61 524.113" stroke="#FFFFFF" stroke-width="0.333333" stroke-linejoin="round" stroke-miterlimit="10" fill="none" fill-rule="evenodd"/><path d="M1280.69 43.2 1432.96 43.2" stroke="#FFFFFF" stroke-width="0.333333" stroke-linejoin="round" stroke-miterlimit="10" fill="none" fill-rule="evenodd"/><path d="M1280.69 86.4 1432.96 86.4" stroke="#FFFFFF" stroke-width="0.333333" stroke-linejoin="round" stroke-miterlimit="10" fill="none" fill-rule="evenodd"/><path d="M1280.69 129.6 1432.96 129.6" stroke="#FFFFFF" stroke-width="0.333333" stroke-linejoin="round" stroke-miterlimit="10" fill="none" fill-rule="evenodd"/><path d="M1280.69 172.8 1432.96 172.8" stroke="#FFFFFF" stroke-width="0.333333" stroke-linejoin="round" stroke-miterlimit="10" fill="none" fill-rule="evenodd"/><path d="M1280.69 178.347 1432.96 178.347" stroke="#FFFFFF" stroke-width="0.333333" stroke-linejoin="round" stroke-miterlimit="10" fill="none" fill-rule="evenodd"/><path d="M1280.69 226.347 1432.96 226.347" stroke="#FFFFFF" stroke-width="0.333333" stroke-linejoin="round" stroke-miterlimit="10" fill="none" fill-rule="evenodd"/><path d="M1280.69 274.347 1432.96 274.347" stroke="#FFFFFF" stroke-width="0.333333" stroke-linejoin="round" stroke-miterlimit="10" fill="none" fill-rule="evenodd"/><path d="M1280.69 322.347 1432.96 322.347" stroke="#FFFFFF" stroke-width="0.333333" stroke-linejoin="round" stroke-miterlimit="10" fill="none" fill-rule="evenodd"/><path d="M1280.69 375.147 1432.96 375.147" stroke="#FFFFFF" stroke-width="0.333333" stroke-linejoin="round" stroke-miterlimit="10" fill="none" fill-rule="evenodd"/><path d="M1280.69 427.947 1432.96 427.947" stroke="#FFFFFF" stroke-width="0.333333" stroke-linejoin="round" stroke-miterlimit="10" fill="none" fill-rule="evenodd"/><path d="M1280.69 475.947 1432.96 475.947" stroke="#FFFFFF" stroke-width="0.333333" stroke-linejoin="round" stroke-miterlimit="10" fill="none" fill-rule="evenodd"/><path d="M1280.86-0.166614 1280.86 524.113" stroke="#FFFFFF" stroke-width="0.333333" stroke-linejoin="round" stroke-miterlimit="10" fill="none" fill-rule="evenodd"/><path d="M1432.79-0.166614 1432.79 524.113" stroke="#FFFFFF" stroke-width="0.333333" stroke-linejoin="round" stroke-miterlimit="10" fill="none" fill-rule="evenodd"/><path d="M1280.69 0 1432.96 0" stroke="#FFFFFF" stroke-width="0.333333" stroke-linejoin="round" stroke-miterlimit="10" fill="none" fill-rule="evenodd"/><path d="M1280.69 523.947 1432.96 523.947" stroke="#FFFFFF" stroke-width="0.333333" stroke-linejoin="round" stroke-miterlimit="10" fill="none" fill-rule="evenodd"/><g clip-path="url(#clip1)"><text font-family="Segoe UI,Segoe UI_MSFontService,sans-serif" font-weight="400" font-size="5" transform="matrix(6.12323e-17 1 -1 6.12323e-17 1282.46 325)">Accent Dark/Light</text></g><g clip-path="url(#clip2)"><text font-family="Segoe UI,Segoe UI_MSFontService,sans-serif" font-weight="400" font-size="5" transform="matrix(6.12323e-17 1 -1 6.12323e-17 1282.46 378)">Accent Gaming</text></g><path d="M1295.26 0 1312.54 0 1312.54 43.2 1295.26 43.2Z" fill="#FF9349" fill-rule="evenodd"/><path d="M1312.54 0 1329.72 0 1329.72 43.2 1312.54 43.2Z" fill="#FEF000" fill-rule="evenodd"/><path d="M1329.72 0 1346.9 0 1346.9 43.2 1329.72 43.2Z" fill="#9BF00B" fill-rule="evenodd"/><path d="M1346.9 0 1364.07 0 1364.07 43.2 1346.9 43.2Z" fill="#30E5D0" fill-rule="evenodd"/><path d="M1364.07 0 1381.25 0 1381.25 43.2 1364.07 43.2Z" fill="#50E6FF" fill-rule="evenodd"/><path d="M1381.25 0 1398.43 0 1398.43 43.2 1381.25 43.2Z" fill="#D59DFF" fill-rule="evenodd"/><path d="M1295.26 43.2 1312.54 43.2 1312.54 86.4 1295.26 86.4Z" fill="#D83B01" fill-rule="evenodd"/><path d="M1312.54 43.2 1329.72 43.2 1329.72 86.4 1312.54 86.4Z" fill="#FFB900" fill-rule="evenodd"/><path d="M1329.72 43.2 1346.9 43.2 1346.9 86.4 1329.72 86.4Z" fill="#107C10" fill-rule="evenodd"/><path d="M1346.9 43.2 1364.07 43.2 1364.07 86.4 1346.9 86.4Z" fill="#008575" fill-rule="evenodd"/><path d="M1364.07 43.2 1381.25 43.2 1381.25 86.4 1364.07 86.4Z" fill="#0078D4" fill-rule="evenodd"/><path d="M1381.25 43.2 1398.43 43.2 1398.43 86.4 1381.25 86.4Z" fill="#8661C5" fill-rule="evenodd"/><path d="M1295.26 86.4 1312.54 86.4 1312.54 129.6 1295.26 129.6Z" fill="#6B2929" fill-rule="evenodd"/><path d="M1312.54 86.4 1329.72 86.4 1329.72 129.6 1312.54 129.6Z" fill="#6A4B16" fill-rule="evenodd"/><path d="M1329.72 86.4 1346.9 86.4 1346.9 129.6 1329.72 129.6Z" fill="#054B16" fill-rule="evenodd"/><path d="M1346.9 86.4 1364.07 86.4 1364.07 129.6 1346.9 129.6Z" fill="#274B47" fill-rule="evenodd"/><path d="M1364.07 86.4 1381.25 86.4 1381.25 129.6 1364.07 129.6Z" fill="#243A5E" fill-rule="evenodd"/><path d="M1381.25 86.4 1398.43 86.4 1398.43 129.6 1381.25 129.6Z" fill="#3B2E58" fill-rule="evenodd"/><path d="M1295.26 129.6 1312.54 129.6 1312.54 172.8 1295.26 172.8Z" fill="#FFFFFF" fill-rule="evenodd"/><path d="M1312.54 129.6 1329.72 129.6 1329.72 172.8 1312.54 172.8Z" fill="#F2F2F2" fill-rule="evenodd"/><path d="M1329.72 129.6 1346.9 129.6 1346.9 172.8 1329.72 172.8Z" fill="#E6E6E6" fill-rule="evenodd"/><path d="M1346.9 129.6 1364.07 129.6 1364.07 172.8 1346.9 172.8Z" fill="#D2D2D2" fill-rule="evenodd"/><path d="M1364.07 129.6 1381.25 129.6 1381.25 172.8 1364.07 172.8Z" fill="#737373" fill-rule="evenodd"/><path d="M1381.25 129.6 1398.43 129.6 1398.43 172.8 1381.25 172.8Z" fill="#505050" fill-rule="evenodd"/><path d="M1398.43 129.6 1415.61 129.6 1415.61 172.8 1398.43 172.8Z" fill="#2F2F2F" fill-rule="evenodd"/><path d="M1415.61 129.6 1432.79 129.6 1432.79 172.8 1415.61 172.8Z" fill-rule="evenodd"/><path d="M1295.26 178.347 1312.54 178.347 1312.54 226.347 1295.26 226.347Z" fill="#0078D4" fill-rule="evenodd"/><path d="M1312.54 178.347 1329.72 178.347 1329.72 226.347 1312.54 226.347Z" fill="#50E6FF" fill-rule="evenodd"/><path d="M1329.72 178.347 1346.9 178.347 1346.9 226.347 1329.72 226.347Z" fill="#FFFFFF" fill-rule="evenodd"/><path d="M1346.9 178.347 1364.07 178.347 1364.07 226.347 1346.9 226.347Z" fill="#EBEBEB" fill-rule="evenodd"/><path d="M1364.07 178.347 1381.25 178.347 1381.25 226.347 1364.07 226.347Z" fill="#75757A" fill-rule="evenodd"/><path d="M1381.25 178.347 1398.43 178.347 1398.43 226.347 1381.25 226.347Z" fill="#3C3C41" fill-rule="evenodd"/><path d="M1398.43 178.347 1415.61 178.347 1415.61 226.347 1398.43 226.347Z" fill-rule="evenodd"/><path d="M1295.26 226.347 1312.54 226.347 1312.54 274.347 1295.26 274.347Z" fill="#0078D4" fill-rule="evenodd"/><path d="M1312.54 226.347 1329.72 226.347 1329.72 274.347 1312.54 274.347Z" fill="#243A5E" fill-rule="evenodd"/><path d="M1329.72 226.347 1346.9 226.347 1346.9 274.347 1329.72 274.347Z" fill="#F2F2F2" fill-rule="evenodd"/><path d="M1346.9 226.347 1364.07 226.347 1364.07 274.347 1346.9 274.347Z" fill="#FFFFFF" fill-rule="evenodd"/><path d="M1364.07 226.347 1381.25 226.347 1381.25 274.347 1364.07 274.347Z" fill="#505050" fill-rule="evenodd"/><path d="M1295.26 274.347 1312.54 274.347 1312.54 322.347 1295.26 322.347Z" fill="#0078D4" fill-rule="evenodd"/><path d="M1312.54 274.347 1329.72 274.347 1329.72 322.347 1312.54 322.347Z" fill="#243A5E" fill-rule="evenodd"/><path d="M1329.72 274.347 1346.9 274.347 1346.9 322.347 1329.72 322.347Z" fill-rule="evenodd"/><path d="M1346.9 274.347 1364.07 274.347 1364.07 322.347 1346.9 322.347Z" fill="#FFFFFF" fill-rule="evenodd"/><path d="M1364.07 274.347 1381.25 274.347 1381.25 322.347 1364.07 322.347Z" fill="#505050" fill-rule="evenodd"/><path d="M1295.26 322.347 1312.54 322.347 1312.54 375.147 1295.26 375.147Z" fill="#50E6FF" fill-rule="evenodd"/><path d="M1312.54 322.347 1329.72 322.347 1329.72 375.147 1312.54 375.147Z" fill="#0C59A4" fill-rule="evenodd"/><path d="M1329.72 322.347 1346.9 322.347 1346.9 375.147 1329.72 375.147Z" fill="#737373" fill-rule="evenodd"/><path d="M1346.9 322.347 1364.07 322.347 1364.07 375.147 1346.9 375.147Z" fill="#D2D2D2" fill-rule="evenodd"/><path d="M1295.26 375.147 1312.54 375.147 1312.54 427.947 1295.26 427.947Z" fill="#50E6FF" fill-rule="evenodd"/><path d="M1312.54 375.147 1329.72 375.147 1329.72 427.947 1312.54 427.947Z" fill="#D83B01" fill-rule="evenodd"/><path d="M1329.72 375.147 1346.9 375.147 1346.9 427.947 1329.72 427.947Z" fill="#9BF00B" fill-rule="evenodd"/><path d="M1295.26 427.947 1312.54 427.947 1312.54 475.947 1295.26 475.947Z" fill="#D83B01" fill-rule="evenodd"/><path d="M1312.54 427.947 1329.72 427.947 1329.72 475.947 1312.54 475.947Z" fill="#FFFFFF" fill-rule="evenodd"/><path d="M1329.72 427.947 1346.9 427.947 1346.9 475.947 1329.72 475.947Z" fill-rule="evenodd"/><path d="M1346.9 427.947 1364.07 427.947 1364.07 475.947 1346.9 475.947Z" fill="#2F2F2F" fill-rule="evenodd"/><path d="M1364.07 427.947 1381.25 427.947 1381.25 475.947 1364.07 475.947Z" fill="#D2D2D2" fill-rule="evenodd"/><path d="M1381.25 427.947 1398.43 427.947 1398.43 475.947 1381.25 475.947Z" fill="#E6E6E6" fill-rule="evenodd"/><path d="M1295.26 475.947 1312.54 475.947 1312.54 523.947 1295.26 523.947Z" fill="#3B2E58" fill-rule="evenodd"/><path d="M1312.54 475.947 1329.72 475.947 1329.72 523.947 1312.54 523.947Z" fill="#8661C5" fill-rule="evenodd"/><path d="M1329.72 475.947 1346.9 475.947 1346.9 523.947 1329.72 523.947Z" fill="#D59DFF" fill-rule="evenodd"/><path d="M1346.9 475.947 1364.07 475.947 1364.07 523.947 1346.9 523.947Z" fill="#191919" fill-rule="evenodd"/><path d="M1364.07 475.947 1381.25 475.947 1381.25 523.947 1364.07 523.947Z" fill="#D9D9D6" fill-rule="evenodd"/><path d="M1381.25 475.947 1398.43 475.947 1398.43 523.947 1381.25 523.947Z" fill="#FFFFFF" fill-rule="evenodd"/><path d="M1295.26-0.166614 1295.26 524.113" stroke="#FFFFFF" stroke-width="0.333333" stroke-linejoin="round" stroke-miterlimit="10" fill="none" fill-rule="evenodd"/><path d="M1312.54-0.166614 1312.54 524.113" stroke="#FFFFFF" stroke-width="0.333333" stroke-linejoin="round" stroke-miterlimit="10" fill="none" fill-rule="evenodd"/><path d="M1329.72-0.166614 1329.72 524.113" stroke="#FFFFFF" stroke-width="0.333333" stroke-linejoin="round" stroke-miterlimit="10" fill="none" fill-rule="evenodd"/><path d="M1346.9-0.166614 1346.9 524.113" stroke="#FFFFFF" stroke-width="0.333333" stroke-linejoin="round" stroke-miterlimit="10" fill="none" fill-rule="evenodd"/><path d="M1364.07-0.166614 1364.07 524.113" stroke="#FFFFFF" stroke-width="0.333333" stroke-linejoin="round" stroke-miterlimit="10" fill="none" fill-rule="evenodd"/><path d="M1381.25-0.166614 1381.25 524.113" stroke="#FFFFFF" stroke-width="0.333333" stroke-linejoin="round" stroke-miterlimit="10" fill="none" fill-rule="evenodd"/><path d="M1398.43-0.166614 1398.43 524.113" stroke="#FFFFFF" stroke-width="0.333333" stroke-linejoin="round" stroke-miterlimit="10" fill="none" fill-rule="evenodd"/><path d="M1415.61-0.166614 1415.61 524.113" stroke="#FFFFFF" stroke-width="0.333333" stroke-linejoin="round" stroke-miterlimit="10" fill="none" fill-rule="evenodd"/><path d="M1280.69 43.2 1432.96 43.2" stroke="#FFFFFF" stroke-width="0.333333" stroke-linejoin="round" stroke-miterlimit="10" fill="none" fill-rule="evenodd"/><path d="M1280.69 86.4 1432.96 86.4" stroke="#FFFFFF" stroke-width="0.333333" stroke-linejoin="round" stroke-miterlimit="10" fill="none" fill-rule="evenodd"/><path d="M1280.69 129.6 1432.96 129.6" stroke="#FFFFFF" stroke-width="0.333333" stroke-linejoin="round" stroke-miterlimit="10" fill="none" fill-rule="evenodd"/><path d="M1280.69 172.8 1432.96 172.8" stroke="#FFFFFF" stroke-width="0.333333" stroke-linejoin="round" stroke-miterlimit="10" fill="none" fill-rule="evenodd"/><path d="M1280.69 178.347 1432.96 178.347" stroke="#FFFFFF" stroke-width="0.333333" stroke-linejoin="round" stroke-miterlimit="10" fill="none" fill-rule="evenodd"/><path d="M1280.69 226.347 1432.96 226.347" stroke="#FFFFFF" stroke-width="0.333333" stroke-linejoin="round" stroke-miterlimit="10" fill="none" fill-rule="evenodd"/><path d="M1280.69 274.347 1432.96 274.347" stroke="#FFFFFF" stroke-width="0.333333" stroke-linejoin="round" stroke-miterlimit="10" fill="none" fill-rule="evenodd"/><path d="M1280.69 322.347 1432.96 322.347" stroke="#FFFFFF" stroke-width="0.333333" stroke-linejoin="round" stroke-miterlimit="10" fill="none" fill-rule="evenodd"/><path d="M1280.69 375.147 1432.96 375.147" stroke="#FFFFFF" stroke-width="0.333333" stroke-linejoin="round" stroke-miterlimit="10" fill="none" fill-rule="evenodd"/><path d="M1280.69 427.947 1432.96 427.947" stroke="#FFFFFF" stroke-width="0.333333" stroke-linejoin="round" stroke-miterlimit="10" fill="none" fill-rule="evenodd"/><path d="M1280.69 475.947 1432.96 475.947" stroke="#FFFFFF" stroke-width="0.333333" stroke-linejoin="round" stroke-miterlimit="10" fill="none" fill-rule="evenodd"/><path d="M1280.86-0.166614 1280.86 524.113" stroke="#FFFFFF" stroke-width="0.333333" stroke-linejoin="round" stroke-miterlimit="10" fill="none" fill-rule="evenodd"/><path d="M1432.79-0.166614 1432.79 524.113" stroke="#FFFFFF" stroke-width="0.333333" stroke-linejoin="round" stroke-miterlimit="10" fill="none" fill-rule="evenodd"/><path d="M1280.69 0 1432.96 0" stroke="#FFFFFF" stroke-width="0.333333" stroke-linejoin="round" stroke-miterlimit="10" fill="none" fill-rule="evenodd"/><path d="M1280.69 523.947 1432.96 523.947" stroke="#FFFFFF" stroke-width="0.333333" stroke-linejoin="round" stroke-miterlimit="10" fill="none" fill-rule="evenodd"/><g clip-path="url(#clip3)"><text font-family="Segoe UI,Segoe UI_MSFontService,sans-serif" font-weight="400" font-size="5" transform="matrix(6.12323e-17 1 -1 6.12323e-17 1282.46 325)">Accent Dark/Light</text></g><g clip-path="url(#clip4)"><text font-family="Segoe UI,Segoe UI_MSFontService,sans-serif" font-weight="400" font-size="5" transform="matrix(6.12323e-17 1 -1 6.12323e-17 1282.46 378)">Accent Gaming</text></g><rect x="28" y="80" width="1224" height="528" stroke="#737373" stroke-width="2" stroke-miterlimit="8" fill="none"/><text font-family="Yu Gothic UI,Yu Gothic UI_MSFontService,sans-serif" font-weight="400" font-size="11" transform="translate(37.6001 95)">Azure VM</text><rect x="244" y="112" width="400" height="384" fill="#E6E6E6"/><text font-family="Yu Gothic UI,Yu Gothic UI_MSFontService,sans-serif" font-weight="400" font-size="11" transform="translate(253.601 127)">AZSHCINODE01</text><rect x="652" y="112" width="584" height="384" fill="#E6E6E6"/><text font-family="Yu Gothic UI,Yu Gothic UI_MSFontService,sans-serif" font-weight="400" font-size="11" transform="translate(661.601 127)">AZSHCINODE02</text><rect x="444" y="456" width="64" height="32" fill="#0078D4"/><text fill="#FFFFFF" font-family="Yu Gothic UI,Yu Gothic UI_MSFontService,sans-serif" font-weight="400" font-size="8" transform="translate(448.251 470)">ComputeSwitch<tspan font-size="8" x="11.5" y="9">(External)</tspan><tspan fill="#000000" font-size="8" x="-117.917" y="0">10.10.11.1</tspan><tspan fill="#000000" font-size="8" x="-117.164" y="9">Storage 1</tspan><tspan fill="#000000" font-size="8" x="-184.084" y="0">192.168.0.2</tspan><tspan fill="#000000" font-size="8" x="-187.584" y="9">Management</tspan><tspan fill="#000000" font-size="8" x="-53.9168" y="0">10.10.12.1</tspan><tspan fill="#000000" font-size="8" x="-53.1635" y="9">Storage 2</tspan></text><rect x="852" y="456" width="64" height="32" fill="#0078D4"/><text fill="#FFFFFF" font-family="Yu Gothic UI,Yu Gothic UI_MSFontService,sans-serif" font-weight="400" font-size="8" transform="translate(856.251 470)">ComputeSwitch<tspan font-size="8" x="11.5" y="9">(External)</tspan><tspan fill="#000000" font-size="8" x="-117.917" y="0">10.10.11.2</tspan><tspan fill="#000000" font-size="8" x="-117.163" y="9">Storage 1</tspan><tspan fill="#000000" font-size="8" x="-184.083" y="0">192.168.0.3</tspan><tspan fill="#000000" font-size="8" x="-187.583" y="9">Management</tspan><tspan fill="#000000" font-size="8" x="-53.9167" y="0">10.10.12.2</tspan><tspan fill="#000000" font-size="8" x="-53.1633" y="9">Storage 2</tspan><tspan fill="#000000" font-size="8" x="-682.251" y="0">10.10.13.254</tspan><tspan fill="#000000" font-size="8" x="-676.498" y="9">Compute</tspan><tspan fill="#000000" font-size="8" x="-744.085" y="0">192.168.0.1</tspan><tspan fill="#000000" font-size="8" x="-747.585" y="9">Management</tspan><tspan fill="#000000" font-size="8" x="-801.588" y="0">10.0.0.4</tspan><tspan fill="#000000" font-size="8" x="-803.001" y="9">Ethernet</tspan></text><path d="M69.1667 488.5 69.1668 632.5 67.8335 632.5 67.8334 488.5ZM72.5002 632.5C72.5002 634.709 70.7093 636.5 68.5002 636.5 66.291 636.5 64.5002 634.709 64.5002 632.5 64.5002 630.291 66.291 628.5 68.5002 628.5 70.7093 628.5 72.5002 630.291 72.5002 632.5Z" fill="#8661C5"/><path d="M100.5 520.5 988.501 520.5" stroke="#107C10" stroke-width="1.33333" stroke-miterlimit="8" fill="none" fill-rule="evenodd"/><path d="M100.5 544.5 988.501 544.5" stroke="#FF9349" stroke-width="1.33333" stroke-miterlimit="8" fill="none" fill-rule="evenodd"/><path d="M100.5 568.5 988.501 568.5" stroke="#0078D4" stroke-width="1.33333" stroke-miterlimit="8" fill="none" fill-rule="evenodd"/><path d="M100.5 592.5 988.501 592.5" stroke="#D83B01" stroke-width="1.33333" stroke-miterlimit="8" fill="none" fill-rule="evenodd"/><path d="M28.5001 632.5 988.5 632.5" stroke="#8661C5" stroke-width="1.33333" stroke-miterlimit="8" fill="none" fill-rule="evenodd"/><text font-family="Yu Gothic UI,Yu Gothic UI_MSFontService,sans-serif" font-weight="400" font-size="8" transform="translate(996 523)">10.10.11.0/24<tspan font-size="8" x="-0.000183105" y="24">10.10.12.0/24</tspan><tspan font-size="8" x="-0.000183105" y="48">10.10.13.0/24</tspan><tspan font-size="8" x="-0.000183105" y="72">192.168.0.0/16</tspan><tspan font-size="8" x="-0.000305176" y="112">10.0.0.0/24</tspan><tspan font-size="8" x="64.0002" y="0">Storage 1</tspan><tspan font-size="8" x="64.0001" y="24">Storage 2</tspan><tspan font-size="8" x="64.0001" y="48">Compute</tspan><tspan font-size="8" x="63.9999" y="72">Management</tspan><tspan font-size="8" x="63.9999" y="112">Azure Virtual network</tspan></text><path d="M0.666667-4.03796e-06 0.667297 104-0.666037 104-0.666667 4.03796e-06ZM4.00063 104C4.00064 106.209 2.20979 108 0.000654149 108-2.20848 108-3.99936 106.209-3.99937 104-3.99938 101.791-2.20853 99.9999 0.000605693 99.9999 2.20974 99.9999 4.00062 101.791 4.00063 104Z" fill="#D83B01" transform="matrix(-1 0 0 1 132.501 488.5)"/><path d="M285.167 488.5 285.167 592.5 283.833 592.5 283.833 488.5ZM288.5 592.5C288.5 594.709 286.709 596.5 284.5 596.5 282.291 596.5 280.5 594.709 280.5 592.5 280.5 590.291 282.291 588.5 284.5 588.5 286.709 588.5 288.5 590.291 288.5 592.5Z" fill="#D83B01"/><path d="M693.167 488.5 693.167 592.5 691.834 592.5 691.833 488.5ZM696.5 592.5C696.5 594.709 694.709 596.5 692.5 596.5 690.291 596.5 688.5 594.709 688.5 592.5 688.5 590.291 690.291 588.5 692.5 588.5 694.709 588.5 696.5 590.291 696.5 592.5Z" fill="#D83B01"/><path d="M0.666667-9.62381e-06 0.667822 79.9999-0.665512 79.9999-0.666667 9.62381e-06ZM4.00115 79.9998C4.00119 82.209 2.21035 83.9999 0.0012126 83.9999-2.20793 83.9999-3.99881 82.2091-3.99885 80-3.99888 77.7908-2.20804 75.9999 0.00109711 75.9999 2.21024 75.9999 4.00112 77.7907 4.00115 79.9998Z" fill="#0078D4" transform="matrix(-1 0 0 1 196.501 488.5)"/><path d="M477.167 488.5 477.167 568.5 475.833 568.5 475.833 488.5ZM480.5 568.5C480.5 570.709 478.709 572.5 476.5 572.5 474.291 572.5 472.5 570.709 472.5 568.5 472.5 566.291 474.291 564.5 476.5 564.5 478.709 564.5 480.5 566.291 480.5 568.5Z" fill="#0078D4"/><path d="M885.167 488.5 885.167 568.5 883.833 568.5 883.833 488.5ZM888.5 568.5C888.5 570.709 886.709 572.5 884.5 572.5 882.291 572.5 880.5 570.709 880.5 568.5 880.5 566.291 882.291 564.5 884.5 564.5 886.709 564.5 888.5 566.291 888.5 568.5Z" fill="#0078D4"/><path d="M349.167 488.5 349.167 520.5 347.833 520.5 347.833 488.5ZM352.5 520.5C352.5 522.709 350.709 524.5 348.5 524.5 346.291 524.5 344.5 522.709 344.5 520.5 344.5 518.291 346.291 516.5 348.5 516.5 350.709 516.5 352.5 518.291 352.5 520.5Z" fill="#107C10"/><path d="M413.167 488.5 413.167 544.5 411.833 544.5 411.833 488.5ZM416.5 544.5C416.5 546.709 414.709 548.5 412.5 548.5 410.291 548.5 408.5 546.709 408.5 544.5 408.5 542.291 410.291 540.5 412.5 540.5 414.709 540.5 416.5 542.291 416.5 544.5Z" fill="#FF9349"/><path d="M757.167 488.5 757.167 520.5 755.833 520.5 755.833 488.5ZM760.5 520.5C760.5 522.709 758.709 524.5 756.5 524.5 754.291 524.5 752.5 522.709 752.5 520.5 752.5 518.291 754.291 516.5 756.5 516.5 758.709 516.5 760.5 518.291 760.5 520.5Z" fill="#107C10"/><path d="M821.167 488.5 821.167 544.5 819.834 544.5 819.833 488.5ZM824.5 544.5C824.5 546.709 822.709 548.5 820.5 548.5 818.291 548.5 816.5 546.709 816.5 544.5 816.5 542.291 818.291 540.5 820.5 540.5 822.709 540.5 824.5 542.291 824.5 544.5Z" fill="#FF9349"/><rect x="1140" y="536" width="56" height="40" fill="#243A5E"/><text fill="#FFFFFF" font-family="Yu Gothic UI,Yu Gothic UI_MSFontService,sans-serif" font-weight="400" font-size="8" transform="translate(1146.92 554)">InternalNAT<tspan font-size="8" x="5.33325" y="9">(Internal)</tspan></text><path d="M1116.5 512.5C1120.92 512.5 1124.5 516.153 1124.5 520.66L1124.5 548.34C1124.5 552.847 1128.08 556.5 1132.5 556.5 1128.08 556.5 1124.5 560.153 1124.5 564.66L1124.5 592.34C1124.5 596.847 1120.92 600.5 1116.5 600.5" stroke="#000000" stroke-width="0.666667" stroke-miterlimit="8" fill="none" fill-rule="evenodd"/><rect x="260.5" y="184.5" width="152" height="56" stroke="#737373" stroke-width="1.33333" stroke-miterlimit="8" fill="#FFFFFF"/><text font-family="Yu Gothic UI,Yu Gothic UI_MSFontService,sans-serif" font-weight="400" font-size="11" transform="translate(269.6 199)">Control plane VM</text><rect x="36" y="104" width="72" height="16" fill="#737373"/><text fill="#FFFFFF" font-family="Yu Gothic UI,Yu Gothic UI_MSFontService,sans-serif" font-weight="400" font-size="8" transform="translate(60.4981 115)">AD DS</text><rect x="116" y="104" width="72" height="16" fill="#737373"/><text fill="#FFFFFF" font-family="Yu Gothic UI,Yu Gothic UI_MSFontService,sans-serif" font-weight="400" font-size="8" transform="translate(143.998 115)">DNS</text><rect x="36" y="128" width="72" height="16" fill="#737373"/><text fill="#FFFFFF" font-family="Yu Gothic UI,Yu Gothic UI_MSFontService,sans-serif" font-weight="400" font-size="8" transform="translate(61.5814 139)">DHCP</text><rect x="36" y="152" width="72" height="16" fill="#737373"/><text fill="#FFFFFF" font-family="Yu Gothic UI,Yu Gothic UI_MSFontService,sans-serif" font-weight="400" font-size="8" transform="translate(57.3314 163)">Hyper<tspan font-size="8" x="21.1667" y="0">-</tspan><tspan font-size="8" x="24.3333" y="0">V</tspan></text><rect x="116" y="128" width="72" height="16" fill="#737373"/><text fill="#FFFFFF" font-family="Yu Gothic UI,Yu Gothic UI_MSFontService,sans-serif" font-weight="400" font-size="8" transform="translate(133.835 139)">File Server</text><rect x="332" y="136" width="72" height="16" fill="#737373"/><text fill="#FFFFFF" font-family="Yu Gothic UI,Yu Gothic UI_MSFontService,sans-serif" font-weight="400" font-size="8" transform="translate(353.333 147)">Hyper<tspan font-size="8" x="21.1667" y="0">-</tspan><tspan font-size="8" x="24.3333" y="0">V</tspan></text><rect x="412" y="136" width="72" height="16" fill="#737373"/><text fill="#FFFFFF" font-family="Yu Gothic UI,Yu Gothic UI_MSFontService,sans-serif" font-weight="400" font-size="8" transform="translate(415.417 147)">Failover Clustering</text><rect x="252" y="136" width="72" height="16" fill="#737373"/><text fill="#FFFFFF" font-family="Yu Gothic UI,Yu Gothic UI_MSFontService,sans-serif" font-weight="400" font-size="8" transform="translate(269.834 147)">File Server<tspan fill="#000000" font-size="8" x="250.333" y="323">192.168.0.4</tspan><tspan fill="#000000" font-size="8" x="261.667" y="332">CNO</tspan><tspan fill="#000000" font-size="8" x="312.167" y="323">192.168.0.11</tspan><tspan fill="#000000" font-size="8" x="312.667" y="332">Cloud agent</tspan></text><path d="M541.167 488.5 541.167 492.5 539.833 492.5 539.833 488.5ZM541.167 493.833 541.167 497.833 539.833 497.833 539.833 493.833ZM541.167 499.167 541.167 503.167 539.833 503.167 539.833 499.167ZM541.167 504.5 541.167 508.5 539.833 508.5 539.833 504.5ZM541.167 509.833 541.167 513.833 539.833 513.833 539.833 509.833ZM541.167 515.167 541.167 519.167 539.833 519.167 539.833 515.167ZM541.167 520.5 541.167 524.5 539.833 524.5 539.833 520.5ZM541.167 525.833 541.167 529.833 539.833 529.833 539.833 525.833ZM541.167 531.167 541.167 535.167 539.833 535.167 539.833 531.167ZM541.167 536.5 541.167 540.5 539.833 540.5 539.833 536.5ZM541.167 541.833 541.167 545.833 539.833 545.833 539.833 541.833ZM541.167 547.167 541.167 551.167 539.833 551.167 539.833 547.167ZM541.167 552.5 541.167 556.5 539.833 556.5 539.833 552.5ZM541.167 557.833 541.167 561.833 539.833 561.833 539.833 557.833ZM541.167 563.167 541.167 567.167 539.833 567.167 539.833 563.167ZM541.167 568.5 541.167 572.5 539.833 572.5 539.833 568.5ZM541.167 573.833 541.167 577.833 539.833 577.833 539.833 573.833ZM541.167 579.167 541.167 583.167 539.833 583.167 539.833 579.167ZM541.167 584.5 541.167 588.5 539.833 588.5 539.833 584.5ZM541.167 589.833 541.167 592.5 539.833 592.5 539.833 589.833ZM544.5 592.5C544.5 594.709 542.709 596.5 540.5 596.5 538.291 596.5 536.5 594.709 536.5 592.5 536.5 590.291 538.291 588.5 540.5 588.5 542.709 588.5 544.5 590.291 544.5 592.5Z" fill="#D83B01"/><path d="M605.167 488.5 605.167 492.5 603.833 492.5 603.833 488.5ZM605.167 493.833 605.167 497.833 603.833 497.833 603.833 493.833ZM605.167 499.167 605.167 503.167 603.833 503.167 603.833 499.167ZM605.167 504.5 605.167 508.5 603.833 508.5 603.833 504.5ZM605.167 509.833 605.167 513.833 603.833 513.833 603.833 509.833ZM605.167 515.167 605.167 519.167 603.833 519.167 603.833 515.167ZM605.167 520.5 605.167 524.5 603.833 524.5 603.833 520.5ZM605.167 525.833 605.167 529.833 603.833 529.833 603.833 525.833ZM605.167 531.167 605.167 535.167 603.833 535.167 603.833 531.167ZM605.167 536.5 605.167 540.5 603.833 540.5 603.833 536.5ZM605.167 541.833 605.167 545.833 603.833 545.833 603.833 541.833ZM605.167 547.167 605.167 551.167 603.833 551.167 603.833 547.167ZM605.167 552.5 605.167 556.5 603.833 556.5 603.833 552.5ZM605.167 557.833 605.167 561.833 603.833 561.833 603.833 557.833ZM605.167 563.167 605.167 567.167 603.833 567.167 603.833 563.167ZM605.167 568.5 605.167 572.5 603.833 572.5 603.833 568.5ZM605.167 573.833 605.167 577.833 603.833 577.833 603.833 573.833ZM605.167 579.167 605.167 583.167 603.833 583.167 603.833 579.167ZM605.167 584.5 605.167 588.5 603.833 588.5 603.833 584.5ZM605.167 589.833 605.167 592.5 603.833 592.5 603.833 589.833ZM608.5 592.5C608.5 594.709 606.709 596.5 604.5 596.5 602.291 596.5 600.5 594.709 600.5 592.5 600.5 590.291 602.291 588.5 604.5 588.5 606.709 588.5 608.5 590.291 608.5 592.5Z" fill="#D83B01"/><text font-family="Yu Gothic UI,Yu Gothic UI_MSFontService,sans-serif" font-weight="400" font-size="8" transform="translate(280.167 214)">10.10.13.10<tspan font-size="8" x="-0.833344" y="9">K8s node IP</tspan><tspan font-size="8" x="69.8329" y="0">10.10.13.150</tspan><tspan font-size="8" x="85.9996" y="9">VIP</tspan></text><path d="M252.5 440.5 636.5 440.5" stroke="#0078D4" stroke-width="1.33333" stroke-miterlimit="8" fill="none" fill-rule="evenodd"/><path d="M477.167 440.5 477.167 456.5 475.834 456.5 475.833 440.5ZM472.5 440.5C472.5 438.291 474.291 436.5 476.5 436.5 478.709 436.5 480.5 438.291 480.5 440.5 480.5 442.709 478.709 444.5 476.5 444.5 474.291 444.5 472.5 442.709 472.5 440.5Z" fill="#0078D4"/><path d="M301.167 232.5 301.167 236.5 299.833 236.5 299.833 232.5ZM301.167 237.833 301.167 241.833 299.833 241.833 299.833 237.833ZM301.167 243.167 301.167 247.167 299.833 247.167 299.833 243.167ZM301.167 248.5 301.167 252.5 299.833 252.5 299.833 248.5ZM301.167 253.833 301.167 257.833 299.833 257.833 299.833 253.833ZM301.167 259.167 301.167 263.167 299.833 263.167 299.833 259.167ZM301.167 264.5 301.167 268.5 299.833 268.5 299.833 264.5ZM301.167 269.833 301.167 273.833 299.833 273.833 299.833 269.833ZM301.167 275.167 301.167 279.167 299.833 279.167 299.833 275.167ZM301.167 280.5 301.167 284.5 299.833 284.5 299.833 280.5ZM301.167 285.833 301.167 289.833 299.833 289.833 299.833 285.833ZM301.167 291.167 301.167 295.167 299.833 295.167 299.833 291.167ZM301.167 296.5 301.167 300.5 299.833 300.5 299.833 296.5ZM301.167 301.833 301.167 305.833 299.833 305.833 299.833 301.833ZM301.167 307.167 301.167 311.167 299.833 311.167 299.833 307.167ZM301.167 312.5 301.167 316.5 299.833 316.5 299.833 312.5ZM301.167 317.833 301.167 321.833 299.833 321.833 299.833 317.833ZM301.167 323.167 301.167 327.167 299.833 327.167 299.833 323.167ZM301.167 328.5 301.167 332.5 299.833 332.5 299.833 328.5ZM301.167 333.833 301.167 337.833 299.833 337.833 299.833 333.833ZM301.167 339.167 301.167 343.167 299.833 343.167 299.833 339.167ZM301.167 344.5 301.167 348.5 299.833 348.5 299.833 344.5ZM301.167 349.833 301.167 353.833 299.833 353.833 299.833 349.833ZM301.167 355.167 301.167 359.167 299.833 359.167 299.833 355.167ZM301.167 360.5 301.167 364.5 299.833 364.5 299.833 360.5ZM301.167 365.833 301.167 369.833 299.833 369.833 299.833 365.833ZM301.167 371.167 301.167 375.167 299.833 375.167 299.833 371.167ZM301.167 376.5 301.167 380.5 299.833 380.5 299.833 376.5ZM301.167 381.833 301.167 385.833 299.833 385.833 299.833 381.833ZM301.167 387.167 301.167 391.167 299.833 391.167 299.833 387.167ZM301.167 392.5 301.167 396.5 299.833 396.5 299.833 392.5ZM301.167 397.833 301.167 401.833 299.833 401.833 299.833 397.833ZM301.167 403.167 301.167 407.167 299.833 407.167 299.833 403.167ZM301.167 408.5 301.167 412.5 299.833 412.5 299.833 408.5ZM301.167 413.833 301.167 417.833 299.833 417.833 299.833 413.833ZM301.167 419.167 301.167 423.167 299.833 423.167 299.833 419.167ZM301.167 424.5 301.167 428.5 299.833 428.5 299.833 424.5ZM301.167 429.833 301.167 433.833 299.833 433.833 299.833 429.833ZM301.167 435.167 301.167 439.167 299.833 439.167 299.833 435.167ZM304.5 440.5C304.5 442.709 302.709 444.5 300.5 444.5 298.291 444.5 296.5 442.709 296.5 440.5 296.5 438.29 298.291 436.5 300.5 436.5 302.709 436.5 304.5 438.29 304.5 440.5Z" fill="#0078D4"/><path d="M373.167 232.5 373.167 236.5 371.833 236.5 371.833 232.5ZM373.167 237.833 373.167 241.833 371.833 241.833 371.833 237.833ZM373.167 243.167 373.167 247.167 371.833 247.167 371.833 243.167ZM373.167 248.5 373.167 252.5 371.833 252.5 371.833 248.5ZM373.167 253.833 373.167 257.833 371.833 257.833 371.833 253.833ZM373.167 259.167 373.167 263.167 371.833 263.167 371.833 259.167ZM373.167 264.5 373.167 268.5 371.833 268.5 371.833 264.5ZM373.167 269.833 373.167 273.833 371.833 273.833 371.833 269.833ZM373.167 275.167 373.167 279.167 371.833 279.167 371.833 275.167ZM373.167 280.5 373.167 284.5 371.833 284.5 371.833 280.5ZM373.167 285.833 373.167 289.833 371.833 289.833 371.833 285.833ZM373.167 291.167 373.167 295.167 371.833 295.167 371.833 291.167ZM373.167 296.5 373.167 300.5 371.833 300.5 371.833 296.5ZM373.167 301.833 373.167 305.833 371.833 305.833 371.833 301.833ZM373.167 307.167 373.167 311.167 371.833 311.167 371.833 307.167ZM373.167 312.5 373.167 316.5 371.833 316.5 371.833 312.5ZM373.167 317.833 373.167 321.833 371.833 321.833 371.833 317.833ZM373.167 323.167 373.167 327.167 371.833 327.167 371.833 323.167ZM373.167 328.5 373.167 332.5 371.833 332.5 371.833 328.5ZM373.167 333.833 373.167 337.833 371.833 337.833 371.833 333.833ZM373.167 339.167 373.167 343.167 371.833 343.167 371.833 339.167ZM373.167 344.5 373.167 348.5 371.833 348.5 371.833 344.5ZM373.167 349.833 373.167 353.833 371.833 353.833 371.833 349.833ZM373.167 355.167 373.167 359.167 371.833 359.167 371.833 355.167ZM373.167 360.5 373.167 364.5 371.833 364.5 371.833 360.5ZM373.167 365.833 373.167 369.833 371.833 369.833 371.833 365.833ZM373.167 371.167 373.167 375.167 371.833 375.167 371.833 371.167ZM373.167 376.5 373.167 380.5 371.833 380.5 371.833 376.5ZM373.167 381.833 373.167 385.833 371.833 385.833 371.833 381.833ZM373.167 387.167 373.167 391.167 371.833 391.167 371.833 387.167ZM373.167 392.5 373.167 396.5 371.833 396.5 371.833 392.5ZM373.167 397.833 373.167 401.833 371.833 401.833 371.833 397.833ZM373.167 403.167 373.167 407.167 371.833 407.167 371.833 403.167ZM373.167 408.5 373.167 412.5 371.833 412.5 371.833 408.5ZM373.167 413.833 373.167 417.833 371.833 417.833 371.833 413.833ZM373.167 419.167 373.167 423.167 371.833 423.167 371.833 419.167ZM373.167 424.5 373.167 428.5 371.833 428.5 371.833 424.5ZM373.167 429.833 373.167 433.833 371.833 433.833 371.833 429.833ZM373.167 435.167 373.167 439.167 371.833 439.167 371.833 435.167ZM376.5 440.5C376.5 442.709 374.709 444.5 372.5 444.5 370.291 444.5 368.5 442.709 368.5 440.5 368.5 438.29 370.291 436.5 372.5 436.5 374.709 436.5 376.5 438.29 376.5 440.5Z" fill="#0078D4"/><path d="M660.5 440.5 1228.5 440.5" stroke="#0078D4" stroke-width="1.33333" stroke-miterlimit="8" fill="none" fill-rule="evenodd"/><path d="M885.167 440.5 885.167 456.5 883.833 456.5 883.833 440.5ZM880.5 440.5C880.5 438.291 882.291 436.5 884.5 436.5 886.709 436.5 888.5 438.291 888.5 440.5 888.5 442.709 886.709 444.5 884.5 444.5 882.291 444.5 880.5 442.709 880.5 440.5Z" fill="#0078D4"/><rect x="236.5" y="88.5001" width="1008" height="416" stroke="#737373" stroke-width="1.33333" stroke-miterlimit="8" stroke-dasharray="1.33333 1.33333" fill="none"/><text font-family="Yu Gothic UI,Yu Gothic UI_MSFontService,sans-serif" font-weight="400" font-size="11" transform="translate(245.601 103)">AZSHCICLUS</text><rect x="740" y="136" width="72" height="16" fill="#737373"/><text fill="#FFFFFF" font-family="Yu Gothic UI,Yu Gothic UI_MSFontService,sans-serif" font-weight="400" font-size="8" transform="translate(761.332 147)">Hyper<tspan font-size="8" x="21.1667" y="0">-</tspan><tspan font-size="8" x="24.3333" y="0">V</tspan></text><rect x="820" y="136" width="72" height="16" fill="#737373"/><text fill="#FFFFFF" font-family="Yu Gothic UI,Yu Gothic UI_MSFontService,sans-serif" font-weight="400" font-size="8" transform="translate(823.416 147)">Failover Clustering</text><rect x="660" y="136" width="72" height="16" fill="#737373"/><text fill="#FFFFFF" font-family="Yu Gothic UI,Yu Gothic UI_MSFontService,sans-serif" font-weight="400" font-size="8" transform="translate(677.833 147)">File Server</text><rect x="252.5" y="160.5" width="976" height="88" stroke="#737373" stroke-width="1.33333" stroke-miterlimit="8" stroke-dasharray="1.33333 1.33333" fill="none"/><text font-family="Yu Gothic UI,Yu Gothic UI_MSFontService,sans-serif" font-weight="400" font-size="11" transform="translate(261.601 175)">Management cluster</text><rect x="252.5" y="264.5" width="976" height="88" stroke="#737373" stroke-width="1.33333" stroke-miterlimit="8" stroke-dasharray="1.33333 1.33333" fill="none"/><text font-family="Yu Gothic UI,Yu Gothic UI_MSFontService,sans-serif" font-weight="400" font-size="11" transform="translate(261.6 279)">Workload cluster</text><rect x="388.5" y="288.5" width="152" height="56" stroke="#737373" stroke-width="1.33333" stroke-miterlimit="8" fill="#FFFFFF"/><text font-family="Yu Gothic UI,Yu Gothic UI_MSFontService,sans-serif" font-weight="400" font-size="11" transform="translate(397.6 303)">Control plane VM<tspan font-size="8" x="10.5668" y="15">10.10.13.12</tspan><tspan font-size="8" x="9.73349" y="24">K8s node IP</tspan></text><rect x="668.5" y="288.5" width="152" height="56" stroke="#737373" stroke-width="1.33333" stroke-miterlimit="8" fill="#FFFFFF"/><text font-family="Yu Gothic UI,Yu Gothic UI_MSFontService,sans-serif" font-weight="400" font-size="11" transform="translate(677.6 303)">Load balancer VM<tspan font-size="8" x="10.5668" y="15">10.10.13.11</tspan><tspan font-size="8" x="9.73352" y="24">K8s node IP</tspan><tspan font-size="8" x="80.3997" y="15">10.10.13.151</tspan><tspan font-size="8" x="96.5664" y="24">VIP</tspan></text><rect x="828.5" y="288.5" width="152" height="56" stroke="#737373" stroke-width="1.33333" stroke-miterlimit="8" fill="#FFFFFF"/><text font-family="Yu Gothic UI,Yu Gothic UI_MSFontService,sans-serif" font-weight="400" font-size="11" transform="translate(837.6 303)">Worker node<tspan font-size="11" x="64.6667" y="0">VM</tspan><tspan font-size="8" x="10.5664" y="15">10.10.13.13</tspan><tspan font-size="8" x="9.73309" y="24">K8s node IP</tspan></text><path d="M429.167 336.5 429.167 340.5 427.833 340.5 427.833 336.5ZM429.167 341.833 429.167 345.833 427.833 345.833 427.833 341.833ZM429.167 347.167 429.167 351.167 427.833 351.167 427.833 347.167ZM429.167 352.5 429.167 356.5 427.833 356.5 427.833 352.5ZM429.167 357.833 429.167 361.833 427.833 361.833 427.833 357.833ZM429.167 363.167 429.167 367.167 427.833 367.167 427.833 363.167ZM429.167 368.5 429.167 372.5 427.833 372.5 427.833 368.5ZM429.167 373.833 429.167 377.833 427.833 377.833 427.833 373.833ZM429.167 379.167 429.167 383.167 427.833 383.167 427.833 379.167ZM429.167 384.5 429.167 388.5 427.833 388.5 427.833 384.5ZM429.167 389.833 429.167 393.833 427.833 393.833 427.833 389.833ZM429.167 395.167 429.167 399.167 427.833 399.167 427.833 395.167ZM429.167 400.5 429.167 404.5 427.833 404.5 427.833 400.5ZM429.167 405.833 429.167 409.833 427.833 409.833 427.833 405.833ZM429.167 411.167 429.167 415.167 427.833 415.167 427.833 411.167ZM429.167 416.5 429.167 420.5 427.833 420.5 427.833 416.5ZM429.167 421.833 429.167 425.833 427.833 425.833 427.833 421.833ZM429.167 427.167 429.167 431.167 427.833 431.167 427.833 427.167ZM429.167 432.5 429.167 436.5 427.833 436.5 427.833 432.5ZM429.167 437.833 429.167 440.5 427.833 440.5 427.833 437.833ZM432.5 440.5C432.5 442.709 430.709 444.5 428.5 444.5 426.291 444.5 424.5 442.709 424.5 440.5 424.5 438.29 426.291 436.5 428.5 436.5 430.709 436.5 432.5 438.29 432.5 440.5Z" fill="#0078D4"/><path d="M709.167 336.5 709.167 340.5 707.833 340.5 707.833 336.5ZM709.167 341.833 709.167 345.833 707.833 345.833 707.833 341.833ZM709.167 347.167 709.167 351.167 707.833 351.167 707.833 347.167ZM709.167 352.5 709.167 356.5 707.833 356.5 707.833 352.5ZM709.167 357.833 709.167 361.833 707.833 361.833 707.833 357.833ZM709.167 363.167 709.167 367.167 707.833 367.167 707.833 363.167ZM709.167 368.5 709.167 372.5 707.833 372.5 707.833 368.5ZM709.167 373.833 709.167 377.833 707.833 377.833 707.833 373.833ZM709.167 379.167 709.167 383.167 707.833 383.167 707.833 379.167ZM709.167 384.5 709.167 388.5 707.833 388.5 707.833 384.5ZM709.167 389.833 709.167 393.833 707.833 393.833 707.833 389.833ZM709.167 395.167 709.167 399.167 707.833 399.167 707.833 395.167ZM709.167 400.5 709.167 404.5 707.833 404.5 707.833 400.5ZM709.167 405.833 709.167 409.833 707.833 409.833 707.833 405.833ZM709.167 411.167 709.167 415.167 707.833 415.167 707.833 411.167ZM709.167 416.5 709.167 420.5 707.833 420.5 707.833 416.5ZM709.167 421.833 709.167 425.833 707.833 425.833 707.833 421.833ZM709.167 427.167 709.167 431.167 707.833 431.167 707.833 427.167ZM709.167 432.5 709.167 436.5 707.833 436.5 707.833 432.5ZM709.167 437.833 709.167 440.5 707.833 440.5 707.833 437.833ZM712.5 440.5C712.5 442.709 710.709 444.5 708.5 444.5 706.291 444.5 704.5 442.709 704.5 440.5 704.5 438.29 706.291 436.5 708.5 436.5 710.709 436.5 712.5 438.29 712.5 440.5Z" fill="#0078D4"/><path d="M781.167 336.5 781.167 340.5 779.833 340.5 779.833 336.5ZM781.167 341.833 781.167 345.833 779.833 345.833 779.833 341.833ZM781.167 347.167 781.167 351.167 779.833 351.167 779.833 347.167ZM781.167 352.5 781.167 356.5 779.833 356.5 779.833 352.5ZM781.167 357.833 781.167 361.833 779.833 361.833 779.833 357.833ZM781.167 363.167 781.167 367.167 779.833 367.167 779.833 363.167ZM781.167 368.5 781.167 372.5 779.833 372.5 779.833 368.5ZM781.167 373.833 781.167 377.833 779.833 377.833 779.833 373.833ZM781.167 379.167 781.167 383.167 779.833 383.167 779.833 379.167ZM781.167 384.5 781.167 388.5 779.833 388.5 779.833 384.5ZM781.167 389.833 781.167 393.833 779.833 393.833 779.833 389.833ZM781.167 395.167 781.167 399.167 779.833 399.167 779.833 395.167ZM781.167 400.5 781.167 404.5 779.833 404.5 779.833 400.5ZM781.167 405.833 781.167 409.833 779.833 409.833 779.833 405.833ZM781.167 411.167 781.167 415.167 779.833 415.167 779.833 411.167ZM781.167 416.5 781.167 420.5 779.833 420.5 779.833 416.5ZM781.167 421.833 781.167 425.833 779.833 425.833 779.833 421.833ZM781.167 427.167 781.167 431.167 779.833 431.167 779.833 427.167ZM781.167 432.5 781.167 436.5 779.833 436.5 779.833 432.5ZM781.167 437.833 781.167 440.5 779.833 440.5 779.833 437.833ZM784.5 440.5C784.5 442.709 782.709 444.5 780.5 444.5 778.291 444.5 776.5 442.709 776.5 440.5 776.5 438.29 778.291 436.5 780.5 436.5 782.709 436.5 784.5 438.29 784.5 440.5Z" fill="#0078D4"/><path d="M869.167 336.5 869.167 340.5 867.833 340.5 867.833 336.5ZM869.167 341.833 869.167 345.833 867.833 345.833 867.833 341.833ZM869.167 347.167 869.167 351.167 867.833 351.167 867.833 347.167ZM869.167 352.5 869.167 356.5 867.833 356.5 867.833 352.5ZM869.167 357.833 869.167 361.833 867.833 361.833 867.833 357.833ZM869.167 363.167 869.167 367.167 867.833 367.167 867.833 363.167ZM869.167 368.5 869.167 372.5 867.833 372.5 867.833 368.5ZM869.167 373.833 869.167 377.833 867.833 377.833 867.833 373.833ZM869.167 379.167 869.167 383.167 867.833 383.167 867.833 379.167ZM869.167 384.5 869.167 388.5 867.833 388.5 867.833 384.5ZM869.167 389.833 869.167 393.833 867.833 393.833 867.833 389.833ZM869.167 395.167 869.167 399.167 867.833 399.167 867.833 395.167ZM869.167 400.5 869.167 404.5 867.833 404.5 867.833 400.5ZM869.167 405.833 869.167 409.833 867.833 409.833 867.833 405.833ZM869.167 411.167 869.167 415.167 867.833 415.167 867.833 411.167ZM869.167 416.5 869.167 420.5 867.833 420.5 867.833 416.5ZM869.167 421.833 869.167 425.833 867.833 425.833 867.833 421.833ZM869.167 427.167 869.167 431.167 867.833 431.167 867.833 427.167ZM869.167 432.5 869.167 436.5 867.833 436.5 867.833 432.5ZM869.167 437.833 869.167 440.5 867.833 440.5 867.833 437.833ZM872.5 440.5C872.5 442.709 870.709 444.5 868.5 444.5 866.291 444.5 864.5 442.709 864.5 440.5 864.5 438.29 866.291 436.5 868.5 436.5 870.709 436.5 872.5 438.29 872.5 440.5Z" fill="#0078D4"/></g></svg>